<svg width="158" height="78" viewBox="0 0 158 78" fill="none" xmlns="http://www.w3.org/2000/svg">
<g filter="url(#filter0_d_124_6299)">
<path d="M24.136 56L11.944 22.4H18.16L27.88 49.16L37.624 22.4H43.816L31.624 56H24.136ZM46.2081 56L52.7361 22.4H57.5841L65.7681 43.928L73.9521 22.4H78.8001L85.3281 56H79.3521L75.3201 35.216L67.7601 55.232H63.7521L56.1921 35.216L52.1841 56H46.2081ZM99.7682 22.4H106.512L118.728 56H112.512L110.352 50.048H95.9523L93.7923 56H87.5763L99.7682 22.4ZM98.0883 44.192H108.192L103.128 30.344L98.0883 44.192ZM132.835 56.624C130.979 56.624 129.195 56.336 127.483 55.76C125.787 55.168 124.299 54.328 123.019 53.24C121.739 52.136 120.819 50.816 120.259 49.28L125.755 47.264C125.979 47.904 126.435 48.488 127.123 49.016C127.811 49.544 128.651 49.968 129.643 50.288C130.635 50.608 131.699 50.768 132.835 50.768C134.003 50.768 135.091 50.592 136.099 50.24C137.123 49.872 137.947 49.368 138.571 48.728C139.195 48.072 139.507 47.312 139.507 46.448C139.507 45.568 139.179 44.848 138.523 44.288C137.867 43.712 137.027 43.256 136.003 42.92C134.979 42.584 133.923 42.328 132.835 42.152C130.451 41.784 128.315 41.216 126.427 40.448C124.539 39.68 123.043 38.616 121.939 37.256C120.851 35.896 120.307 34.136 120.307 31.976C120.307 29.944 120.891 28.168 122.059 26.648C123.227 25.128 124.763 23.944 126.667 23.096C128.571 22.248 130.627 21.824 132.835 21.824C134.675 21.824 136.451 22.112 138.163 22.688C139.875 23.264 141.371 24.104 142.651 25.208C143.947 26.312 144.875 27.64 145.435 29.192L139.915 31.184C139.691 30.544 139.235 29.96 138.547 29.432C137.859 28.904 137.019 28.488 136.027 28.184C135.035 27.864 133.971 27.704 132.835 27.704C131.699 27.688 130.619 27.872 129.595 28.256C128.587 28.624 127.763 29.128 127.123 29.768C126.483 30.408 126.163 31.144 126.163 31.976C126.163 33.048 126.459 33.856 127.051 34.4C127.659 34.944 128.467 35.344 129.475 35.6C130.483 35.84 131.603 36.064 132.835 36.272C135.075 36.624 137.147 37.216 139.051 38.048C140.955 38.88 142.483 39.992 143.635 41.384C144.787 42.76 145.363 44.448 145.363 46.448C145.363 48.48 144.787 50.264 143.635 51.8C142.483 53.32 140.955 54.504 139.051 55.352C137.147 56.2 135.075 56.624 132.835 56.624Z" fill="white"/>
</g>
<defs>
<filter id="filter0_d_124_6299" x="7.94409" y="21.824" width="141.491" height="42.8" filterUnits="userSpaceOnUse" color-interpolation-filters="sRGB">
<feFlood flood-opacity="0" result="BackgroundImageFix"/>
<feColorMatrix in="SourceAlpha" type="matrix" values="0 0 0 0 0 0 0 0 0 0 0 0 0 0 0 0 0 0 127 0" result="hardAlpha"/>
<feOffset dy="4"/>
<feGaussianBlur stdDeviation="2"/>
<feComposite in2="hardAlpha" operator="out"/>
<feColorMatrix type="matrix" values="0 0 0 0 0 0 0 0 0 0 0 0 0 0 0 0 0 0 0.25 0"/>
<feBlend mode="normal" in2="BackgroundImageFix" result="effect1_dropShadow_124_6299"/>
<feBlend mode="normal" in="SourceGraphic" in2="effect1_dropShadow_124_6299" result="shape"/>
</filter>
</defs>
</svg>
