<svg width="112" height="30" viewBox="0 0 112 30" fill="none" xmlns="http://www.w3.org/2000/svg">
<path d="M10.78 29L0.62 0.999998H5.8L13.9 23.3L22.02 0.999998H27.18L17.02 29H10.78ZM29.1734 29L34.6134 0.999998H38.6534L45.4734 18.94L52.2934 0.999998H56.3334L61.7734 29H56.7934L53.4334 11.68L47.1334 28.36H43.7934L37.4934 11.68L34.1534 29H29.1734ZM73.8069 0.999998H79.4269L89.6069 29H84.4269L82.6269 24.04H70.6269L68.8269 29H63.6469L73.8069 0.999998ZM72.4069 19.16H80.8269L76.6069 7.62L72.4069 19.16ZM101.363 29.52C99.8161 29.52 98.3295 29.28 96.9028 28.8C95.4895 28.3067 94.2495 27.6067 93.1828 26.7C92.1161 25.78 91.3495 24.68 90.8828 23.4L95.4628 21.72C95.6495 22.2533 96.0295 22.74 96.6028 23.18C97.1761 23.62 97.8761 23.9733 98.7028 24.24C99.5295 24.5067 100.416 24.64 101.363 24.64C102.336 24.64 103.243 24.4933 104.083 24.2C104.936 23.8933 105.623 23.4733 106.143 22.94C106.663 22.3933 106.923 21.76 106.923 21.04C106.923 20.3067 106.649 19.7067 106.103 19.24C105.556 18.76 104.856 18.38 104.003 18.1C103.149 17.82 102.269 17.6067 101.363 17.46C99.3761 17.1533 97.5961 16.68 96.0228 16.04C94.4495 15.4 93.2028 14.5133 92.2828 13.38C91.3761 12.2467 90.9228 10.78 90.9228 8.98C90.9228 7.28667 91.4095 5.80667 92.3828 4.54C93.3561 3.27333 94.6361 2.28667 96.2228 1.58C97.8095 0.873333 99.5228 0.52 101.363 0.52C102.896 0.52 104.376 0.76 105.803 1.24C107.229 1.72 108.476 2.42 109.543 3.34C110.623 4.26 111.396 5.36666 111.863 6.66L107.263 8.32C107.076 7.78667 106.696 7.3 106.123 6.86C105.549 6.42 104.849 6.07333 104.023 5.82C103.196 5.55333 102.309 5.42 101.363 5.42C100.416 5.40667 99.5161 5.56 98.6628 5.88C97.8228 6.18667 97.1361 6.60667 96.6028 7.14C96.0695 7.67333 95.8028 8.28667 95.8028 8.98C95.8028 9.87333 96.0495 10.5467 96.5428 11C97.0495 11.4533 97.7228 11.7867 98.5628 12C99.4028 12.2 100.336 12.3867 101.363 12.56C103.229 12.8533 104.956 13.3467 106.543 14.04C108.129 14.7333 109.403 15.66 110.363 16.82C111.323 17.9667 111.803 19.3733 111.803 21.04C111.803 22.7333 111.323 24.22 110.363 25.5C109.403 26.7667 108.129 27.7533 106.543 28.46C104.956 29.1667 103.229 29.52 101.363 29.52Z" fill="white"/>
</svg>
